<mxfile host="app.diagrams.net" modified="2021-06-17T02:55:31.155Z" agent="5.0 (Windows NT 10.0; Win64; x64) AppleWebKit/537.36 (KHTML, like Gecko) Chrome/89.0.4389.90 Safari/537.36" etag="K-BanSOnpIns_NBsyj0f" version="13.7.9" type="github">
  <diagram id="C5RBs43oDa-KdzZeNtuy" name="Page-1">
    <mxGraphModel dx="2844" dy="1588" grid="1" gridSize="10" guides="1" tooltips="1" connect="1" arrows="1" fold="1" page="1" pageScale="1" pageWidth="827" pageHeight="1169" math="0" shadow="0">
      <root>
        <mxCell id="WIyWlLk6GJQsqaUBKTNV-0" />
        <mxCell id="WIyWlLk6GJQsqaUBKTNV-1" parent="WIyWlLk6GJQsqaUBKTNV-0" />
        <mxCell id="X43wygpL5dwBFsIKlkYf-60" value="注：开始(六角菱形)、过程(矩形)、终止(椭圆形)" style="text;html=1;align=center;verticalAlign=middle;resizable=0;points=[];autosize=1;" parent="WIyWlLk6GJQsqaUBKTNV-1" vertex="1">
          <mxGeometry x="350" y="1020" width="270" height="20" as="geometry" />
        </mxCell>
        <mxCell id="8oBinveNJYtPGVikXjge-47" value="" style="edgeStyle=orthogonalEdgeStyle;rounded=0;orthogonalLoop=1;jettySize=auto;html=1;" edge="1" parent="WIyWlLk6GJQsqaUBKTNV-1" source="X43wygpL5dwBFsIKlkYf-63" target="X43wygpL5dwBFsIKlkYf-66">
          <mxGeometry relative="1" as="geometry" />
        </mxCell>
        <mxCell id="X43wygpL5dwBFsIKlkYf-63" value="上电，打开GPU" style="shape=hexagon;perimeter=hexagonPerimeter2;whiteSpace=wrap;html=1;shadow=0;strokeWidth=1;" parent="WIyWlLk6GJQsqaUBKTNV-1" vertex="1">
          <mxGeometry x="320" width="120" height="80" as="geometry" />
        </mxCell>
        <mxCell id="8oBinveNJYtPGVikXjge-53" value="" style="edgeStyle=orthogonalEdgeStyle;rounded=0;orthogonalLoop=1;jettySize=auto;html=1;" edge="1" parent="WIyWlLk6GJQsqaUBKTNV-1" source="X43wygpL5dwBFsIKlkYf-66" target="8oBinveNJYtPGVikXjge-1">
          <mxGeometry relative="1" as="geometry" />
        </mxCell>
        <mxCell id="X43wygpL5dwBFsIKlkYf-66" value="初始化模型，发送遥测信号" style="rounded=0;whiteSpace=wrap;html=1;shadow=0;strokeWidth=1;" parent="WIyWlLk6GJQsqaUBKTNV-1" vertex="1">
          <mxGeometry x="320" y="110" width="120" height="60" as="geometry" />
        </mxCell>
        <mxCell id="8oBinveNJYtPGVikXjge-55" value="" style="edgeStyle=orthogonalEdgeStyle;rounded=0;orthogonalLoop=1;jettySize=auto;html=1;" edge="1" parent="WIyWlLk6GJQsqaUBKTNV-1" source="X43wygpL5dwBFsIKlkYf-80" target="X43wygpL5dwBFsIKlkYf-103">
          <mxGeometry relative="1" as="geometry" />
        </mxCell>
        <mxCell id="X43wygpL5dwBFsIKlkYf-80" value="图像传输完成，预处理，解析辅助数据，开始图像处理" style="rounded=0;whiteSpace=wrap;html=1;shadow=0;strokeWidth=1;" parent="WIyWlLk6GJQsqaUBKTNV-1" vertex="1">
          <mxGeometry x="320" y="290" width="120" height="60" as="geometry" />
        </mxCell>
        <mxCell id="8oBinveNJYtPGVikXjge-58" value="" style="edgeStyle=orthogonalEdgeStyle;rounded=0;orthogonalLoop=1;jettySize=auto;html=1;" edge="1" parent="WIyWlLk6GJQsqaUBKTNV-1" source="X43wygpL5dwBFsIKlkYf-90" target="X43wygpL5dwBFsIKlkYf-115">
          <mxGeometry relative="1" as="geometry" />
        </mxCell>
        <mxCell id="X43wygpL5dwBFsIKlkYf-90" value="打开多星观测程序，再次发送图像，图像处理完成后进行多星观测" style="rounded=0;whiteSpace=wrap;html=1;shadow=0;strokeWidth=1;" parent="WIyWlLk6GJQsqaUBKTNV-1" vertex="1">
          <mxGeometry x="320" y="470" width="120" height="60" as="geometry" />
        </mxCell>
        <mxCell id="8oBinveNJYtPGVikXjge-56" value="" style="edgeStyle=orthogonalEdgeStyle;rounded=0;orthogonalLoop=1;jettySize=auto;html=1;" edge="1" parent="WIyWlLk6GJQsqaUBKTNV-1" source="X43wygpL5dwBFsIKlkYf-103" target="X43wygpL5dwBFsIKlkYf-90">
          <mxGeometry relative="1" as="geometry" />
        </mxCell>
        <mxCell id="X43wygpL5dwBFsIKlkYf-103" value="图像处理完成，将处理结果传输给综电" style="rounded=0;whiteSpace=wrap;html=1;shadow=0;strokeWidth=1;" parent="WIyWlLk6GJQsqaUBKTNV-1" vertex="1">
          <mxGeometry x="320" y="380" width="120" height="60" as="geometry" />
        </mxCell>
        <mxCell id="8oBinveNJYtPGVikXjge-59" value="" style="edgeStyle=orthogonalEdgeStyle;rounded=0;orthogonalLoop=1;jettySize=auto;html=1;" edge="1" parent="WIyWlLk6GJQsqaUBKTNV-1" source="X43wygpL5dwBFsIKlkYf-115" target="X43wygpL5dwBFsIKlkYf-116">
          <mxGeometry relative="1" as="geometry" />
        </mxCell>
        <mxCell id="X43wygpL5dwBFsIKlkYf-115" value="多星观测完成后将多星观测结果传输给综电" style="rounded=0;whiteSpace=wrap;html=1;shadow=0;strokeWidth=1;" parent="WIyWlLk6GJQsqaUBKTNV-1" vertex="1">
          <mxGeometry x="320" y="560" width="120" height="60" as="geometry" />
        </mxCell>
        <mxCell id="8oBinveNJYtPGVikXjge-60" value="" style="edgeStyle=orthogonalEdgeStyle;rounded=0;orthogonalLoop=1;jettySize=auto;html=1;" edge="1" parent="WIyWlLk6GJQsqaUBKTNV-1" source="X43wygpL5dwBFsIKlkYf-116" target="X43wygpL5dwBFsIKlkYf-135">
          <mxGeometry relative="1" as="geometry" />
        </mxCell>
        <mxCell id="X43wygpL5dwBFsIKlkYf-116" value="关闭多星观测程序，图像处理完成后不会进行多星观测" style="rounded=0;whiteSpace=wrap;html=1;shadow=0;strokeWidth=1;" parent="WIyWlLk6GJQsqaUBKTNV-1" vertex="1">
          <mxGeometry x="320" y="650" width="120" height="60" as="geometry" />
        </mxCell>
        <mxCell id="X43wygpL5dwBFsIKlkYf-133" value="演示结束" style="ellipse;whiteSpace=wrap;html=1;shadow=0;strokeWidth=1;" parent="WIyWlLk6GJQsqaUBKTNV-1" vertex="1">
          <mxGeometry x="510" width="120" height="80" as="geometry" />
        </mxCell>
        <mxCell id="8oBinveNJYtPGVikXjge-61" value="" style="edgeStyle=orthogonalEdgeStyle;rounded=0;orthogonalLoop=1;jettySize=auto;html=1;" edge="1" parent="WIyWlLk6GJQsqaUBKTNV-1" source="X43wygpL5dwBFsIKlkYf-135" target="8oBinveNJYtPGVikXjge-7">
          <mxGeometry relative="1" as="geometry" />
        </mxCell>
        <mxCell id="X43wygpL5dwBFsIKlkYf-135" value="打开任务规划程序，任务规划模式不会和图像处理模式同时存在" style="rounded=0;whiteSpace=wrap;html=1;shadow=0;strokeWidth=1;" parent="WIyWlLk6GJQsqaUBKTNV-1" vertex="1">
          <mxGeometry x="320" y="740" width="120" height="60" as="geometry" />
        </mxCell>
        <mxCell id="8oBinveNJYtPGVikXjge-54" value="" style="edgeStyle=orthogonalEdgeStyle;rounded=0;orthogonalLoop=1;jettySize=auto;html=1;" edge="1" parent="WIyWlLk6GJQsqaUBKTNV-1" source="8oBinveNJYtPGVikXjge-1" target="X43wygpL5dwBFsIKlkYf-80">
          <mxGeometry relative="1" as="geometry" />
        </mxCell>
        <mxCell id="8oBinveNJYtPGVikXjge-1" value="默认工作模式：图像处理，等待图像传输" style="rounded=0;whiteSpace=wrap;html=1;shadow=0;strokeWidth=1;" vertex="1" parent="WIyWlLk6GJQsqaUBKTNV-1">
          <mxGeometry x="320" y="200" width="120" height="60" as="geometry" />
        </mxCell>
        <mxCell id="8oBinveNJYtPGVikXjge-63" value="" style="edgeStyle=orthogonalEdgeStyle;rounded=0;orthogonalLoop=1;jettySize=auto;html=1;" edge="1" parent="WIyWlLk6GJQsqaUBKTNV-1" source="8oBinveNJYtPGVikXjge-7" target="8oBinveNJYtPGVikXjge-9">
          <mxGeometry relative="1" as="geometry" />
        </mxCell>
        <mxCell id="8oBinveNJYtPGVikXjge-7" value="运行任务规划程序，将任务规划处理结果传输给综电" style="rounded=0;whiteSpace=wrap;html=1;shadow=0;strokeWidth=1;" vertex="1" parent="WIyWlLk6GJQsqaUBKTNV-1">
          <mxGeometry x="320" y="830" width="120" height="60" as="geometry" />
        </mxCell>
        <mxCell id="8oBinveNJYtPGVikXjge-35" value="" style="edgeStyle=orthogonalEdgeStyle;rounded=0;orthogonalLoop=1;jettySize=auto;html=1;" edge="1" parent="WIyWlLk6GJQsqaUBKTNV-1" source="8oBinveNJYtPGVikXjge-9" target="8oBinveNJYtPGVikXjge-25">
          <mxGeometry relative="1" as="geometry" />
        </mxCell>
        <mxCell id="8oBinveNJYtPGVikXjge-9" value="关闭任务规划模式，自动跳转回图像处理模式" style="rounded=0;whiteSpace=wrap;html=1;shadow=0;strokeWidth=1;" vertex="1" parent="WIyWlLk6GJQsqaUBKTNV-1">
          <mxGeometry x="320" y="920" width="120" height="60" as="geometry" />
        </mxCell>
        <mxCell id="8oBinveNJYtPGVikXjge-44" value="" style="edgeStyle=orthogonalEdgeStyle;rounded=0;orthogonalLoop=1;jettySize=auto;html=1;" edge="1" parent="WIyWlLk6GJQsqaUBKTNV-1" source="8oBinveNJYtPGVikXjge-12" target="8oBinveNJYtPGVikXjge-28">
          <mxGeometry relative="1" as="geometry" />
        </mxCell>
        <mxCell id="8oBinveNJYtPGVikXjge-12" value="发送遥控指令重启GPU验证软件版本回滚成功" style="rounded=0;whiteSpace=wrap;html=1;shadow=0;strokeWidth=1;" vertex="1" parent="WIyWlLk6GJQsqaUBKTNV-1">
          <mxGeometry x="510" y="290" width="120" height="60" as="geometry" />
        </mxCell>
        <mxCell id="8oBinveNJYtPGVikXjge-42" value="" style="edgeStyle=orthogonalEdgeStyle;rounded=0;orthogonalLoop=1;jettySize=auto;html=1;" edge="1" parent="WIyWlLk6GJQsqaUBKTNV-1" source="8oBinveNJYtPGVikXjge-15" target="8oBinveNJYtPGVikXjge-16">
          <mxGeometry relative="1" as="geometry" />
        </mxCell>
        <mxCell id="8oBinveNJYtPGVikXjge-15" value="发送遥控指令打开准许在轨更新" style="rounded=0;whiteSpace=wrap;html=1;shadow=0;strokeWidth=1;" vertex="1" parent="WIyWlLk6GJQsqaUBKTNV-1">
          <mxGeometry x="510" y="470" width="120" height="60" as="geometry" />
        </mxCell>
        <mxCell id="8oBinveNJYtPGVikXjge-43" value="" style="edgeStyle=orthogonalEdgeStyle;rounded=0;orthogonalLoop=1;jettySize=auto;html=1;" edge="1" parent="WIyWlLk6GJQsqaUBKTNV-1" source="8oBinveNJYtPGVikXjge-16" target="8oBinveNJYtPGVikXjge-12">
          <mxGeometry relative="1" as="geometry" />
        </mxCell>
        <mxCell id="8oBinveNJYtPGVikXjge-16" value="发送注数指令回滚之前的软件版本" style="rounded=0;whiteSpace=wrap;html=1;shadow=0;strokeWidth=1;" vertex="1" parent="WIyWlLk6GJQsqaUBKTNV-1">
          <mxGeometry x="510" y="380" width="120" height="60" as="geometry" />
        </mxCell>
        <mxCell id="8oBinveNJYtPGVikXjge-40" value="" style="edgeStyle=orthogonalEdgeStyle;rounded=0;orthogonalLoop=1;jettySize=auto;html=1;" edge="1" parent="WIyWlLk6GJQsqaUBKTNV-1" source="8oBinveNJYtPGVikXjge-18" target="8oBinveNJYtPGVikXjge-15">
          <mxGeometry relative="1" as="geometry" />
        </mxCell>
        <mxCell id="8oBinveNJYtPGVikXjge-18" value="发送遥控指令重启GPU验证在轨更新成功" style="rounded=0;whiteSpace=wrap;html=1;shadow=0;strokeWidth=1;" vertex="1" parent="WIyWlLk6GJQsqaUBKTNV-1">
          <mxGeometry x="510" y="560" width="120" height="60" as="geometry" />
        </mxCell>
        <mxCell id="8oBinveNJYtPGVikXjge-39" value="" style="edgeStyle=orthogonalEdgeStyle;rounded=0;orthogonalLoop=1;jettySize=auto;html=1;" edge="1" parent="WIyWlLk6GJQsqaUBKTNV-1" source="8oBinveNJYtPGVikXjge-20" target="8oBinveNJYtPGVikXjge-18">
          <mxGeometry relative="1" as="geometry" />
        </mxCell>
        <mxCell id="8oBinveNJYtPGVikXjge-20" value="发送注数切换文件版本实现在轨更新" style="rounded=0;whiteSpace=wrap;html=1;shadow=0;strokeWidth=1;" vertex="1" parent="WIyWlLk6GJQsqaUBKTNV-1">
          <mxGeometry x="510" y="650" width="120" height="60" as="geometry" />
        </mxCell>
        <mxCell id="8oBinveNJYtPGVikXjge-38" value="" style="edgeStyle=orthogonalEdgeStyle;rounded=0;orthogonalLoop=1;jettySize=auto;html=1;" edge="1" parent="WIyWlLk6GJQsqaUBKTNV-1" source="8oBinveNJYtPGVikXjge-21" target="8oBinveNJYtPGVikXjge-20">
          <mxGeometry relative="1" as="geometry" />
        </mxCell>
        <mxCell id="8oBinveNJYtPGVikXjge-21" value="发送遥控指令打开在轨更新准许" style="rounded=0;whiteSpace=wrap;html=1;shadow=0;strokeWidth=1;" vertex="1" parent="WIyWlLk6GJQsqaUBKTNV-1">
          <mxGeometry x="510" y="740" width="120" height="60" as="geometry" />
        </mxCell>
        <mxCell id="8oBinveNJYtPGVikXjge-37" value="" style="edgeStyle=orthogonalEdgeStyle;rounded=0;orthogonalLoop=1;jettySize=auto;html=1;" edge="1" parent="WIyWlLk6GJQsqaUBKTNV-1" source="8oBinveNJYtPGVikXjge-23" target="8oBinveNJYtPGVikXjge-21">
          <mxGeometry relative="1" as="geometry" />
        </mxCell>
        <mxCell id="8oBinveNJYtPGVikXjge-23" value="发送高速上行注数上传模型，代码，参数文件" style="rounded=0;whiteSpace=wrap;html=1;shadow=0;strokeWidth=1;" vertex="1" parent="WIyWlLk6GJQsqaUBKTNV-1">
          <mxGeometry x="510" y="830" width="120" height="60" as="geometry" />
        </mxCell>
        <mxCell id="8oBinveNJYtPGVikXjge-36" value="" style="edgeStyle=orthogonalEdgeStyle;rounded=0;orthogonalLoop=1;jettySize=auto;html=1;" edge="1" parent="WIyWlLk6GJQsqaUBKTNV-1" source="8oBinveNJYtPGVikXjge-25" target="8oBinveNJYtPGVikXjge-23">
          <mxGeometry relative="1" as="geometry" />
        </mxCell>
        <mxCell id="8oBinveNJYtPGVikXjge-25" value="发送注数下载星上处理完后的图像" style="rounded=0;whiteSpace=wrap;html=1;shadow=0;strokeWidth=1;" vertex="1" parent="WIyWlLk6GJQsqaUBKTNV-1">
          <mxGeometry x="510" y="920" width="120" height="60" as="geometry" />
        </mxCell>
        <mxCell id="8oBinveNJYtPGVikXjge-46" value="" style="edgeStyle=orthogonalEdgeStyle;rounded=0;orthogonalLoop=1;jettySize=auto;html=1;" edge="1" parent="WIyWlLk6GJQsqaUBKTNV-1" source="8oBinveNJYtPGVikXjge-27" target="X43wygpL5dwBFsIKlkYf-133">
          <mxGeometry relative="1" as="geometry" />
        </mxCell>
        <mxCell id="8oBinveNJYtPGVikXjge-27" value="" style="rounded=0;whiteSpace=wrap;html=1;shadow=0;strokeWidth=1;" vertex="1" parent="WIyWlLk6GJQsqaUBKTNV-1">
          <mxGeometry x="510" y="110" width="120" height="60" as="geometry" />
        </mxCell>
        <mxCell id="8oBinveNJYtPGVikXjge-45" value="" style="edgeStyle=orthogonalEdgeStyle;rounded=0;orthogonalLoop=1;jettySize=auto;html=1;" edge="1" parent="WIyWlLk6GJQsqaUBKTNV-1" source="8oBinveNJYtPGVikXjge-28" target="8oBinveNJYtPGVikXjge-27">
          <mxGeometry relative="1" as="geometry" />
        </mxCell>
        <mxCell id="8oBinveNJYtPGVikXjge-28" value="发送关机指令让GPU设备关机" style="rounded=0;whiteSpace=wrap;html=1;shadow=0;strokeWidth=1;" vertex="1" parent="WIyWlLk6GJQsqaUBKTNV-1">
          <mxGeometry x="510" y="200" width="120" height="60" as="geometry" />
        </mxCell>
      </root>
    </mxGraphModel>
  </diagram>
</mxfile>
